<?xml version="1.0" standalone="no"?><!DOCTYPE svg PUBLIC "-//W3C//DTD SVG 1.1//EN" "http://www.w3.org/Graphics/SVG/1.1/DTD/svg11.dtd"><svg
        class="icon" viewBox="0 0 1024 1024" version="1.1" xmlns="http://www.w3.org/2000/svg" xmlns:xlink="http://www.w3.org/1999/xlink" width="200" height="200"><defs><style type="text/css">@font-face { font-family: feedback-iconfont; src: url("//at.alicdn.com/t/font_1031158_1uhr8ri0pk5.eot?#iefix") format("embedded-opentype"), url("//at.alicdn.com/t/font_1031158_1uhr8ri0pk5.woff2") format("woff2"), url("//at.alicdn.com/t/font_1031158_1uhr8ri0pk5.woff") format("woff"), url("//at.alicdn.com/t/font_1031158_1uhr8ri0pk5.ttf") format("truetype"), url("//at.alicdn.com/t/font_1031158_1uhr8ri0pk5.svg#iconfont") format("svg"); }
</style></defs><path d="M864 832a32 32 0 0 1 0 64H160a32 32 0 0 1 0-64h704zM576 288a32 32 0 0 1 32 32v416a32 32 0 0 1-32 32h-128a32 32 0 0 1-32-32V320a32 32 0 0 1 32-32h128z m-256 160a32 32 0 0 1 32 32v256a32 32 0 0 1-32 32H192a32 32 0 0 1-32-32v-256a32 32 0 0 1 32-32h128zM832 128a32 32 0 0 1 32 32v576a32 32 0 0 1-32 32h-128a32 32 0 0 1-32-32V160a32 32 0 0 1 32-32h128z"/></svg>